<svg width="86" height="16" fill="none" xmlns="http://www.w3.org/2000/svg"><path d="M10.52 6.27L17.307 0h2.844l-8.178 7.563L21.416 16h-2.844l-8-7.146L2.844 16H0l9.13-8.438L.67 0h2.844l7.006 6.27zm31.309-4.603h-8.031V16H31.79V1.667h-8.031V0h18.07v1.667zM54.92 0c1.569 0 2.83.07 3.786.208.962.14 1.69.379 2.185.72.495.34.83.805 1.004 1.395.175.59.262 1.337.262 2.24v.416c0 .833-.102 1.552-.304 2.156-.195.598-.575 1.084-1.14 1.459-.564.368-1.4.628-2.51.781L61.698 16H59.69l-3.42-6.48c-.14.008-.286.011-.439.011H46.18V16h-2.008V0h10.75zm30.995 16h-2.342l-2.008-3.667H68.85L66.842 16H64.5l9.37-16h2.677l9.37 16zm-16.062-5.333h10.708l-5.354-9.334-5.354 9.334zM46.18 7.802h8.878c1.192 0 2.13-.038 2.813-.114.69-.084 1.196-.226 1.517-.428.327-.201.536-.486.627-.854.09-.368.136-.843.136-1.427v-.417c0-.66-.063-1.18-.188-1.562a1.389 1.389 0 00-.753-.844c-.377-.18-.938-.295-1.684-.344-.746-.055-1.743-.083-2.99-.083h-8.356v6.073z" fill="#4DFFC9"/></svg>